<?xml version="1.0" encoding="UTF-8"?>
<svg xmlns="http://www.w3.org/2000/svg" viewBox="0 0 512 512" fill="#53B27D">
  <path d="M429.5 119.5c-21-21-48-31.5-75-31.5s-54 10.5-75 31.5l-97.5 97.5L162 196l28-28c6-6 6-16 0-22l-45-45.5-11-11C130 85 123 83 117 83c-5.5 0-13 2.5-18 7.5l-15.5 15.5c-79 79-79 208 0 287 39.5 39.5 92 59.5 143.5 59.5s104-20 143.5-59.5l15.5-15.5c9.5-9.5 9.5-25 0-34.5l-56.5-56.5c-6-6-16-6-22 0l-28 28-21-21 97.5-97.5c41.5-41.5 41.5-109 0-150.5z"/>
  <path d="M406 106l-30 30c28 28 28 73 0 100l-97 97 21 21 30-30c35-35 43-86 26-129l30-30c6-6 6-15 0-21s-15-6-21 0zM162 284l30-30-21-21-30 30 21 21zM25 176c0-26 6-51 17-74L16 76C5 108 0 142 0 176s5 68 16 100l26-26c-11-23-17-48-17-74zM184 80l26-26C178 43 144 38 110 48L136 74c23-11 48-17 74-17z"/>
</svg>